<svg xmlns="http://www.w3.org/2000/svg" xmlns:xlink="http://www.w3.org/1999/xlink" version="1.1" x="0px" y="0px" viewBox="0 0 100 100" enable-background="new 0 0 100 100" xml:space="preserve" style="max-width:100%" height="100%"><g style="" fill="currentColor"><path d="M91.807,40.942h-3.114v-4.175c0-0.946-0.767-1.713-1.712-1.713h-39.82c-0.946,0-1.713,0.767-1.713,1.713v2.276   c-0.334-0.447-0.687-0.881-1.066-1.293c-2.923-3.18-6.758-4.93-10.85-4.93c-6.979,0-13.134,5.322-14.758,12.423   c-3.577-0.542-7.521,0.613-10.697,3.271C1.922,53.714-0.158,62.639,3.53,67.999c0.314,0.46,0.724,0.972,1.215,1.524   C2.788,77.016,0.658,88.761,6.01,90.368c0.378,0.114,0.785,0.172,1.208,0.172c2.954,0,7.101-2.861,13.356-9.225   c2.323,1.087,4.271,1.621,5.925,1.621c1.184,0,2.231-0.275,3.115-0.819c0.762-0.472,1.374-1.161,1.866-2.015   c0.688,0.271,1.381,0.414,2.078,0.414c0.001,0,0.002,0,0.003,0c0.718-0.001,1.412-0.162,2.086-0.432   c0.494,0.862,1.11,1.558,1.879,2.033c0.88,0.543,1.927,0.818,3.112,0.818c1.652,0,3.599-0.533,5.925-1.621   c6.255,6.363,10.4,9.225,13.355,9.225c0.423,0,0.829-0.058,1.207-0.172c3.487-1.047,3.8-6.397,3.053-12.07h15.835   c0.946,0,1.713-0.768,1.713-1.713v-2.662c4.021-1.174,6.968-4.889,6.968-9.283v-8.327h3.114c3.579,0,6.491-2.911,6.491-6.49v-2.391   C98.298,43.854,95.386,40.942,91.807,40.942z M7.217,87.114c-0.086,0-0.162-0.009-0.221-0.026   c-0.993-0.299-1.719-5.063,0.578-14.761c0.107,0.098,0.226,0.197,0.336,0.297c0.114,0.102,0.229,0.202,0.347,0.306   c0.931,0.813,1.956,1.658,3.047,2.503c0.124,0.095,0.247,0.189,0.373,0.286c1.114,0.85,2.285,1.688,3.486,2.484   c0.134,0.088,0.267,0.175,0.4,0.262c0.603,0.393,1.208,0.776,1.818,1.14c0.003,0.001,0.006,0.003,0.008,0.006   c0.011,0.007,0.022,0.013,0.034,0.02C10.946,86.098,8.263,87.114,7.217,87.114z M27.812,79.203c-1.157,0.716-3.56,0.19-6.8-1.488   c-3.968-2.082-8.297-5.351-11.311-8.095c-0.213-0.194-0.441-0.394-0.641-0.581c-0.279-0.265-0.519-0.51-0.768-0.759   c-0.135-0.135-0.29-0.279-0.415-0.41c-0.657-0.687-1.181-1.31-1.521-1.809c-2.691-3.91-0.854-10.888,3.926-14.925   c2.03-1.7,4.405-2.636,6.689-2.636c0.468,0,0.928,0.039,1.377,0.116c0,0.063-0.001,0.126-0.001,0.188c0,0,0,0,0,0.001l0,0   c0,0.006,0,0.014,0,0.019c0,0.186,0.004,0.382,0.012,0.588c0.002,0.061,0.007,0.127,0.01,0.189   c0.008,0.157,0.016,0.317,0.027,0.485c0.005,0.075,0.013,0.154,0.019,0.229c0.014,0.168,0.027,0.335,0.044,0.512   c0.007,0.079,0.017,0.165,0.025,0.247c0.019,0.18,0.038,0.358,0.06,0.546c0.011,0.09,0.023,0.184,0.035,0.273   c0.024,0.19,0.049,0.383,0.077,0.581c0.013,0.089,0.027,0.183,0.04,0.275c0.03,0.205,0.061,0.412,0.094,0.624   c0.015,0.094,0.031,0.188,0.046,0.282c0.036,0.22,0.073,0.44,0.112,0.666c0.017,0.094,0.034,0.188,0.051,0.283   c0.042,0.233,0.085,0.467,0.131,0.706c0.018,0.093,0.036,0.186,0.055,0.279c0.048,0.244,0.097,0.491,0.148,0.741   c0.021,0.095,0.041,0.19,0.061,0.286c0.053,0.254,0.109,0.51,0.167,0.768c0.021,0.095,0.042,0.189,0.063,0.284   c0.061,0.266,0.123,0.533,0.187,0.803c0.021,0.09,0.042,0.18,0.064,0.269c0.067,0.28,0.137,0.563,0.209,0.846   c0.021,0.082,0.042,0.166,0.064,0.249c0.075,0.294,0.152,0.588,0.232,0.885c0.02,0.074,0.04,0.149,0.06,0.224   c0.083,0.307,0.169,0.615,0.257,0.923c0.02,0.067,0.039,0.136,0.058,0.204c0.092,0.319,0.187,0.64,0.284,0.961   c0.017,0.056,0.033,0.111,0.05,0.168c0.102,0.336,0.208,0.673,0.315,1.009c0.014,0.042,0.026,0.083,0.04,0.126   c0.116,0.357,0.234,0.716,0.355,1.072c0.006,0.019,0.013,0.038,0.02,0.058c0.644,1.894,1.368,3.754,2.164,5.484   c0.031,0.068,0.063,0.133,0.094,0.199c0.126,0.271,0.252,0.538,0.382,0.801c0.049,0.1,0.099,0.195,0.148,0.294   c0.113,0.226,0.227,0.451,0.342,0.671c0.062,0.116,0.124,0.229,0.186,0.343c0.106,0.197,0.214,0.393,0.322,0.584   c0.07,0.123,0.141,0.242,0.212,0.362c0.103,0.175,0.206,0.351,0.311,0.52c0.077,0.125,0.154,0.246,0.232,0.368   c0.102,0.158,0.203,0.315,0.306,0.47c0.083,0.122,0.166,0.241,0.25,0.361c0.1,0.143,0.2,0.284,0.301,0.42   c0.089,0.12,0.177,0.236,0.267,0.352c0.1,0.128,0.199,0.254,0.3,0.376c0.093,0.114,0.187,0.225,0.282,0.334   c0.099,0.114,0.199,0.225,0.298,0.332c0.097,0.106,0.195,0.209,0.293,0.309c0.046,0.047,0.091,0.099,0.138,0.145   C28.418,78.661,28.138,79,27.812,79.203z M33.554,77.091c-0.561-0.001-1.186-0.262-1.857-0.777   c-5.332-4.081-9.926-20.952-9.925-27.508c0-0.398,0.025-0.825,0.077-1.307c0.676-6.204,5.917-11.253,11.735-11.253   c3.07,0,6.009,1.358,8.276,3.823c2.214,2.408,3.483,5.592,3.482,8.735c0,1.217-0.141,2.697-0.394,4.332   c-0.476,2.996-1.341,6.61-2.476,10.122c-0.033,0.1-0.065,0.202-0.098,0.303c-0.05,0.151-0.102,0.304-0.153,0.455   c-0.088,0.261-0.176,0.521-0.267,0.779c-0.021,0.062-0.043,0.122-0.064,0.182c-0.123,0.346-0.247,0.689-0.374,1.029   c-0.002,0.007-0.005,0.014-0.007,0.021c-0.28,0.748-0.57,1.48-0.87,2.189c-0.002,0.006-0.004,0.012-0.006,0.018   c-0.129,0.305-0.26,0.603-0.392,0.898c-0.031,0.068-0.06,0.137-0.091,0.205c-0.073,0.159-0.146,0.313-0.22,0.471   c-1.362,2.902-2.894,5.281-4.493,6.505c-0.05,0.038-0.083,0.09-0.126,0.132C34.722,76.854,34.134,77.09,33.554,77.091z    M39.326,79.204c-0.328-0.203-0.609-0.543-0.84-1.014c1.24-1.219,2.393-2.886,3.446-4.813c0.006-0.012,0.012-0.022,0.018-0.033   c0.173-0.317,0.343-0.642,0.511-0.973c0.055-0.106,0.108-0.213,0.162-0.32c0.117-0.236,0.231-0.475,0.345-0.716   c0.073-0.155,0.146-0.307,0.218-0.463c0.088-0.191,0.172-0.388,0.258-0.582c0.159-0.358,0.315-0.723,0.467-1.092   c0.073-0.176,0.146-0.352,0.218-0.53c0.075-0.188,0.148-0.375,0.222-0.564c0.102-0.262,0.202-0.525,0.301-0.79   c0.039-0.105,0.079-0.209,0.117-0.314c2.54-6.907,4.019-14.62,4.019-18.194c0-0.063-0.001-0.125-0.001-0.188   c2.643-0.455,5.622,0.473,8.061,2.514c2.975,2.515,4.809,6.163,5.125,9.504c0.158,1.974-0.215,3.832-1.207,5.274   c-0.342,0.499-0.866,1.123-1.516,1.801c-0.134,0.141-0.231,0.305-0.31,0.475c-0.902,0.911-2.018,1.927-3.274,2.978   c-0.181,0.151-0.348,0.3-0.534,0.451c-0.278,0.228-0.576,0.457-0.865,0.684c-0.275,0.217-0.54,0.435-0.822,0.65   c-0.185,0.141-0.38,0.277-0.568,0.418c-0.402,0.302-0.801,0.603-1.214,0.896c-0.06,0.043-0.122,0.082-0.181,0.124   c-0.548,0.387-1.1,0.769-1.657,1.133c-0.078,0.052-0.156,0.096-0.233,0.146c-0.541,0.351-1.082,0.694-1.622,1.016   c-0.617,0.367-1.231,0.713-1.836,1.03C42.881,79.394,40.477,79.914,39.326,79.204z M60.137,87.088   c-0.057,0.018-0.133,0.026-0.22,0.026c-1.045,0-3.73-1.017-10.205-7.484c0.012-0.007,0.023-0.015,0.035-0.022   c0.01-0.005,0.021-0.012,0.031-0.018c0.599-0.357,1.194-0.733,1.786-1.119c0.142-0.093,0.283-0.185,0.424-0.278   c0.594-0.395,1.184-0.795,1.76-1.206c0.01-0.008,0.019-0.015,0.029-0.021c0.571-0.409,1.127-0.824,1.673-1.24   c0.131-0.1,0.261-0.199,0.39-0.3c1.092-0.845,2.118-1.69,3.05-2.505c0.11-0.098,0.217-0.192,0.324-0.287   c0.114-0.102,0.236-0.205,0.347-0.306c0.272,1.149,0.499,2.225,0.69,3.236c0.042,0.228,0.083,0.451,0.122,0.675   C61.635,83.306,60.987,86.832,60.137,87.088z M78.3,74.872H63.616c-0.008-0.042-0.017-0.084-0.025-0.126   c-0.027-0.143-0.054-0.285-0.082-0.43H78.3V74.872z M85.268,64.64c0,3.447-2.805,6.252-6.251,6.252H62.76   c-0.112-0.471-0.229-0.935-0.346-1.396c0.475-0.536,0.876-1.038,1.188-1.492c1.402-2.037,1.967-4.59,1.796-7.257   c-0.233-4.397-2.489-9.129-6.355-12.396c-3.013-2.52-6.719-3.734-10.168-3.353V38.48h36.395V64.64z M94.872,49.822   c0,1.689-1.375,3.064-3.065,3.064h-3.114v-8.52h3.114c1.69,0,3.065,1.375,3.065,3.064V49.822z" style="" fill="currentColor"></path><path d="M80.529,66.268c0.946,0,1.713-0.767,1.713-1.712V40.663c0-0.945-0.767-1.713-1.713-1.713s-1.713,0.768-1.713,1.713v23.893   C78.816,65.501,79.583,66.268,80.529,66.268z" style="" fill="currentColor"></path><path d="M60.318,9.962c-0.668-0.669-1.753-0.668-2.422-0.001l-3.982,3.979c-0.322,0.322-0.502,0.757-0.502,1.212   s0.181,0.89,0.502,1.212l2.77,2.767l-2.77,2.767c-0.669,0.669-0.669,1.753-0.001,2.422l2.773,2.777l-2.772,2.774   c-0.668,0.669-0.668,1.754,0.001,2.424c0.334,0.333,0.772,0.5,1.21,0.5c0.439,0,0.877-0.167,1.211-0.502l3.982-3.985   c0.668-0.669,0.668-1.753,0-2.421l-2.772-2.776l2.771-2.768c0.322-0.322,0.502-0.757,0.502-1.212s-0.181-0.89-0.502-1.212   l-2.77-2.767l2.77-2.767C60.987,11.716,60.987,10.631,60.318,9.962z" style="" fill="currentColor"></path><path d="M70.775,19.13c0-0.455-0.181-0.891-0.502-1.212l-2.77-2.767l2.77-2.767c0.669-0.669,0.669-1.753,0.001-2.423   c-0.668-0.669-1.752-0.668-2.422-0.001l-3.983,3.979c-0.322,0.32-0.502,0.757-0.502,1.212s0.181,0.891,0.502,1.212l2.77,2.767   l-2.77,2.767c-0.321,0.321-0.502,0.757-0.502,1.211c0,0.455,0.18,0.89,0.501,1.212l2.773,2.776l-2.773,2.774   c-0.668,0.669-0.668,1.754,0,2.422c0.335,0.335,0.773,0.502,1.211,0.502c0.438,0,0.877-0.167,1.211-0.502l3.983-3.985   c0.668-0.669,0.668-1.753,0-2.422l-2.772-2.775l2.771-2.768C70.595,20.021,70.775,19.585,70.775,19.13z" style="" fill="currentColor"></path><path d="M80.229,9.962c-0.668-0.669-1.753-0.668-2.422-0.001l-3.982,3.979c-0.321,0.322-0.502,0.757-0.502,1.212   s0.181,0.89,0.502,1.212l2.77,2.767l-2.77,2.767c-0.669,0.669-0.669,1.753-0.001,2.422l2.773,2.777l-2.773,2.774   c-0.668,0.669-0.668,1.754,0.001,2.424c0.334,0.333,0.772,0.5,1.21,0.5c0.439,0,0.877-0.167,1.212-0.502l3.982-3.985   c0.668-0.669,0.668-1.753,0-2.421l-2.772-2.776l2.77-2.768c0.322-0.322,0.502-0.757,0.502-1.212s-0.181-0.89-0.502-1.212   l-2.769-2.767l2.769-2.767C80.897,11.716,80.897,10.631,80.229,9.962z" style="" fill="currentColor"></path><path d="M54.278,65.09c-0.536,0.777-0.339,1.845,0.44,2.381c0.297,0.203,0.635,0.302,0.969,0.302c0.545,0,1.081-0.26,1.413-0.743   c2.315-3.364,1.298-10.151-3.863-14.509c-0.723-0.611-1.804-0.521-2.414,0.202c-0.611,0.723-0.52,1.804,0.203,2.413   C54.866,58.38,55.526,63.274,54.278,65.09z" style="" fill="currentColor"></path></g></svg>