<svg xmlns="http://www.w3.org/2000/svg" xmlns:xlink="http://www.w3.org/1999/xlink" version="1.1" x="0px" y="0px" viewBox="0 0 64 64" style="enable-background:new 0 0 64 64;max-width:100%" xml:space="preserve" height="100%"><g style="" fill="currentColor"><path d="M63,23c0-1.193-0.525-2.267-1.357-3C62.475,19.267,63,18.193,63,17c0-2.206-1.794-4-4-4H43h-5h-7.798   C30.714,12.179,31,11.236,31,10.243c0-2.496-1.758-4.599-4.134-5.108C26.356,2.759,24.253,1,21.757,1   c-1.399,0-2.716,0.545-3.708,1.535L18,2.585l-0.051-0.051C16.958,1.545,15.642,1,14.243,1c-2.496,0-4.599,1.759-5.108,4.135   C6.759,5.645,5,7.747,5,10.242c0,1.115,0.358,2.168,0.998,3.053C3.111,14.159,1,16.837,1,20c0,2.548,1.373,4.775,3.413,6   C2.373,27.225,1,29.452,1,32s1.373,4.775,3.413,6C2.373,39.225,1,41.452,1,44s1.373,4.775,3.413,6C2.373,51.225,1,53.452,1,56   c0,3.859,3.14,7,7,7h30h21c2.206,0,4-1.794,4-4c0-1.193-0.525-2.267-1.357-3C62.475,55.267,63,54.193,63,53   c0-1.201-0.542-2.266-1.382-3C62.458,49.266,63,48.201,63,47c0-1.193-0.525-2.267-1.357-3C62.475,43.267,63,42.193,63,41   c0-1.201-0.542-2.266-1.382-3C62.458,37.266,63,36.201,63,35c0-1.193-0.525-2.267-1.357-3C62.475,31.267,63,30.193,63,29   c0-1.201-0.542-2.266-1.382-3C62.458,25.266,63,24.201,63,23z M30.202,15h2.908C31.81,16.272,31,18.042,31,20s0.81,3.728,2.111,5   h-7.266c0.486-0.616,0.85-1.336,1.022-2.135C29.242,22.355,31,20.253,31,17.758C31,16.765,30.714,15.821,30.202,15z M10.075,7.021   l0.899-0.048l0.047-0.899C11.111,4.351,12.526,3,14.243,3c0.866,0,1.68,0.337,2.292,0.949L18,5.415l1.464-1.465   C20.077,3.337,20.892,3,21.757,3c1.716,0,3.132,1.351,3.222,3.075l0.047,0.898l0.899,0.048C27.649,7.111,29,8.526,29,10.243   c0,0.866-0.337,1.68-0.95,2.292L26.586,14l1.464,1.466C28.663,16.077,29,16.891,29,17.758c0,1.716-1.351,3.131-3.074,3.221   l-0.899,0.048l-0.047,0.898C24.889,23.649,23.474,25,21.757,25c-0.866,0-1.68-0.337-2.292-0.949L18,22.585l-1.464,1.465   C15.923,24.663,15.108,25,14.243,25c-1.717,0-3.132-1.351-3.222-3.074l-0.047-0.899l-0.899-0.048C8.351,20.889,7,19.474,7,17.758   c0-0.867,0.337-1.681,0.95-2.293L9.414,14l-1.464-1.466C7.337,11.923,7,11.109,7,10.242C7,8.526,8.351,7.111,10.075,7.021z M3,20   c0-1.8,0.965-3.367,2.396-4.248C5.136,16.38,5,17.058,5,17.758c0,2.495,1.759,4.598,4.134,5.107   c0.171,0.799,0.535,1.519,1.021,2.135H8C5.243,25,3,22.757,3,20z M3,32c0-2.757,2.243-5,5-5h8h17.111C31.81,28.272,31,30.042,31,32   s0.81,3.728,2.111,5H8C5.243,37,3,34.757,3,32z M3,44c0-2.757,2.243-5,5-5h25.111C31.81,40.272,31,42.042,31,44s0.81,3.728,2.111,5   H8C5.243,49,3,46.757,3,44z M8,61c-2.757,0-5-2.243-5-5s2.243-5,5-5h25.111C31.81,52.272,31,54.042,31,56s0.81,3.728,2.111,5H8z    M61,53c0,1.103-0.897,2-2,2H37v2h22c1.103,0,2,0.897,2,2s-0.897,2-2,2H38c-2.757,0-5-2.243-5-5s2.243-5,5-5h21   C60.103,51,61,51.897,61,53z M61,41c0,1.103-0.897,2-2,2H37v2h22c1.103,0,2,0.897,2,2s-0.897,2-2,2H38c-2.757,0-5-2.243-5-5   s2.243-5,5-5h21C60.103,39,61,39.897,61,41z M61,29c0,1.103-0.897,2-2,2H37v2h22c1.103,0,2,0.897,2,2s-0.897,2-2,2H38   c-2.757,0-5-2.243-5-5s2.243-5,5-5h21C60.103,27,61,27.897,61,29z M38,25c-2.757,0-5-2.243-5-5s2.243-5,5-5h5h16   c1.103,0,2,0.897,2,2s-0.897,2-2,2H37v2h22c1.103,0,2,0.897,2,2s-0.897,2-2,2H38z" style="" fill="currentColor"></path><path d="M18,20c3.309,0,6-2.691,6-6s-2.691-6-6-6s-6,2.691-6,6S14.691,20,18,20z M18,10c2.206,0,4,1.794,4,4s-1.794,4-4,4   s-4-1.794-4-4S15.794,10,18,10z" style="" fill="currentColor"></path><path d="M7,56v-1H5v1c0,1.654,1.346,3,3,3h10v-2H8C7.449,57,7,56.552,7,56z" style="" fill="currentColor"></path><rect x="20" y="57" width="2" height="2" style="" fill="currentColor"></rect><path d="M7,32v-1H5v1c0,1.654,1.346,3,3,3h10v-2H8C7.449,33,7,32.552,7,32z" style="" fill="currentColor"></path><rect x="20" y="33" width="2" height="2" style="" fill="currentColor"></rect><rect x="27" y="41" width="2" height="2" style="" fill="currentColor"></rect><rect x="23" y="41" width="2" height="2" style="" fill="currentColor"></rect><rect x="19" y="41" width="2" height="2" style="" fill="currentColor"></rect></g></svg>