<svg width="512" height="512" viewBox="0 0 512 512" fill="none" xmlns="http://www.w3.org/2000/svg">
<path d="M79.9468 512C67.2962 512 55.4001 506.833 46.4471 497.448C37.7619 488.345 32.978 476.477 32.978 464.032V208.202C32.978 182.303 54.048 161.233 79.9468 161.233C105.846 161.233 126.916 182.303 126.916 208.202V464.032C126.916 476.521 122.109 488.412 113.381 497.518C104.428 506.857 92.5535 512 79.9468 512ZM79.9468 191.212C70.5791 191.212 62.9581 198.833 62.9581 208.201V464.031C62.9581 473.614 70.8968 482.019 79.9468 482.019C88.9968 482.019 96.9356 473.614 96.9356 464.031V208.201C96.9356 198.833 89.3146 191.212 79.9468 191.212Z" fill="white"/>
<path d="M464.691 512C438.241 512 416.723 490.482 416.723 464.032V296.143C416.723 287.865 423.435 281.153 431.713 281.153H496.67C504.949 281.153 511.66 287.865 511.66 296.143V464.032C511.66 476.521 506.852 488.412 498.124 497.518C489.172 506.856 477.298 512 464.691 512ZM446.703 311.133V464.032C446.703 472.874 453.431 482.02 464.691 482.02C473.741 482.02 481.68 473.615 481.68 464.032V311.133H446.703Z" fill="white"/>
<path d="M255.83 319.128C229.931 319.128 208.861 298.058 208.861 272.159V47.3087C208.861 21.4099 229.931 0.339844 255.83 0.339844C281.729 0.339844 302.799 21.4099 302.799 47.3087V272.159C302.799 298.058 281.729 319.128 255.83 319.128ZM255.83 30.3189C246.462 30.3189 238.841 37.9399 238.841 47.3077V272.158C238.841 281.526 246.462 289.147 255.83 289.147C265.198 289.147 272.819 281.526 272.819 272.158V47.3077C272.819 37.9399 265.198 30.3189 255.83 30.3189Z" fill="white"/>
<path d="M79.9468 191.212C71.6683 191.212 64.9568 184.501 64.9568 176.222V15.3289C64.9568 7.05041 71.6683 0.338867 79.9468 0.338867C88.2253 0.338867 94.9369 7.05041 94.9369 15.3289V176.222C94.9369 184.502 88.2253 191.212 79.9468 191.212Z" fill="white"/>
<path d="M143.904 127.255H14.99C6.71154 127.255 0 120.543 0 112.265V15.3289C0 7.05041 6.71154 0.338867 14.99 0.338867C23.2685 0.338867 29.9801 7.05041 29.9801 15.3289V97.2745H128.914V15.3289C128.914 7.05041 135.626 0.338867 143.904 0.338867C152.183 0.338867 158.894 7.05041 158.894 15.3289V112.265C158.894 120.544 152.183 127.255 143.904 127.255Z" fill="white"/>
<path d="M255.83 383.086C247.552 383.086 240.84 376.375 240.84 368.096V304.138C240.84 295.86 247.552 289.148 255.83 289.148C264.109 289.148 270.82 295.86 270.82 304.138V368.096C270.82 376.375 264.109 383.086 255.83 383.086Z" fill="white"/>
<path d="M255.83 512C237.895 512 221.554 498.622 208.573 473.312C199.036 454.715 192.872 432.243 192.872 416.064C192.872 381.349 221.115 353.106 255.83 353.106C290.545 353.106 318.788 381.349 318.788 416.064C318.788 432.243 312.625 454.715 303.087 473.312C290.106 498.622 273.764 512 255.83 512ZM255.83 383.086C237.646 383.086 222.852 397.88 222.852 416.064C222.852 425.405 226.731 443.023 235.25 459.631C243.139 475.015 251.448 482.02 255.83 482.02C260.212 482.02 268.521 475.014 276.41 459.631C284.929 443.023 288.808 425.405 288.808 416.064C288.808 397.88 274.014 383.086 255.83 383.086Z" fill="white"/>
<path d="M496.67 311.134H367.756C359.477 311.134 352.766 304.422 352.766 296.144V134.684C352.766 97.0428 368.113 62.1 395.983 36.2922C423.699 10.6252 460.826 -2.46009 497.819 0.38302C505.629 0.98462 511.66 7.4963 511.66 15.3291V296.143C511.66 304.422 504.949 311.134 496.67 311.134ZM382.746 281.154H481.68V30.1632C457.717 31.6083 434.484 41.4987 416.353 58.2896C394.681 78.3582 382.746 105.489 382.746 134.684V281.154Z" fill="white"/>
</svg>
