<svg width="512" height="510" viewBox="0 0 512 510" fill="none" xmlns="http://www.w3.org/2000/svg">
<path d="M497 462H15C6.716 462 0 455.284 0 447V359C0 350.716 6.716 344 15 344H497C505.284 344 512 350.716 512 359V447C512 455.284 505.284 462 497 462ZM30 432H482V374H30V432Z" fill="white"/>
<path d="M144 374H15C6.716 374 0 367.284 0 359V279C0 270.716 6.716 264 15 264H114C138.813 264 159 284.187 159 309V359C159 367.284 152.284 374 144 374ZM30 344H129V309C129 300.729 122.271 294 114 294H30V344Z" fill="white"/>
<path d="M497 198H15C6.716 198 0 191.284 0 183V95C0 86.716 6.716 80 15 80H497C505.284 80 512 86.716 512 95V183C512 191.284 505.284 198 497 198ZM30 168H482V110H30V168Z" fill="white"/>
<path d="M144 110H15C6.716 110 0 103.284 0 95V15C0 6.716 6.716 0 15 0H114C138.813 0 159 20.187 159 45V95C159 103.284 152.284 110 144 110ZM30 80H129V45C129 36.729 122.271 30 114 30H30V80Z" fill="white"/>
<path d="M15 510C6.716 510 0 503.284 0 495V15C0 6.716 6.716 0 15 0C23.284 0 30 6.716 30 15V495C30 503.284 23.284 510 15 510Z" fill="white"/>
<path d="M497 510C488.716 510 482 503.284 482 495V47C482 38.716 488.716 32 497 32C505.284 32 512 38.716 512 47V495C512 503.284 505.284 510 497 510Z" fill="white"/>
<path d="M368 510C359.716 510 353 503.284 353 495V47C353 38.716 359.716 32 368 32C376.284 32 383 38.716 383 47V495C383 503.284 376.284 510 368 510Z" fill="white"/>
<path d="M497 286H368C359.716 286 353 279.284 353 271C353 262.716 359.716 256 368 256H497C505.284 256 512 262.716 512 271C512 279.284 505.284 286 497 286Z" fill="white"/>
</svg>
