<svg width="411" height="488" viewBox="0 0 411 488" fill="none" xmlns="http://www.w3.org/2000/svg">
<path d="M205.027 318.914C180.356 318.914 160.284 298.842 160.284 274.171C160.284 249.499 180.356 229.428 205.027 229.428C229.699 229.428 249.77 249.499 249.77 274.171C249.77 298.842 229.699 318.914 205.027 318.914ZM205.027 257.987C196.103 257.987 188.844 265.247 188.844 274.171C188.844 283.095 196.103 290.355 205.027 290.355C213.951 290.355 221.211 283.095 221.211 274.171C221.211 265.247 213.951 257.987 205.027 257.987Z" fill="white"/>
<path d="M282.574 211.854C278.919 211.854 275.264 210.461 272.477 207.671C235.284 170.479 174.77 170.48 137.577 207.671C132.002 213.248 122.96 213.248 117.383 207.671C111.806 202.095 111.806 193.054 117.383 187.477C165.71 139.15 244.343 139.15 292.671 187.477C298.248 193.053 298.248 202.095 292.671 207.671C289.882 210.461 286.227 211.854 282.574 211.854Z" fill="white"/>
<path d="M75.7815 160.158C72.1268 160.158 68.4722 158.764 65.6848 155.975C60.1081 150.398 60.1081 141.357 65.6848 135.781C102.904 98.5611 152.391 78.063 205.027 78.063C257.663 78.063 307.15 98.5611 344.37 135.781C349.946 141.357 349.946 150.398 344.37 155.975C338.794 161.551 329.752 161.552 324.175 155.975C292.35 124.15 250.035 106.622 205.027 106.622C160.02 106.622 117.705 124.15 85.8792 155.975C83.0908 158.763 79.4362 160.158 75.7815 160.158Z" fill="white"/>
<path d="M14.2797 487.602C6.39345 487.602 -6.10352e-05 481.209 -6.10352e-05 473.322V365.598C-6.10352e-05 357.712 6.39345 351.318 14.2797 351.318H57.9413C65.8276 351.318 72.2211 357.712 72.2211 365.598C72.2211 373.484 65.8276 379.878 57.9413 379.878H28.5594V473.322C28.5594 481.209 22.1668 487.602 14.2797 487.602Z" fill="white"/>
<path d="M54.4733 432.721H14.2806C6.39442 432.721 0.000915527 426.327 0.000915527 418.441C0.000915527 410.555 6.39442 404.161 14.2806 404.161H54.4733C62.3595 404.161 68.753 410.555 68.753 418.441C68.753 426.327 62.3595 432.721 54.4733 432.721Z" fill="white"/>
<path d="M179.689 488C175.728 488 171.787 486.362 168.964 483.155L123.38 431.36C118.169 425.44 118.744 416.417 124.665 411.207C130.585 405.995 139.608 406.572 144.818 412.492L190.403 464.286C195.613 470.207 195.038 479.23 189.118 484.44C186.406 486.828 183.04 488 179.689 488Z" fill="white"/>
<path d="M121.013 488C113.127 488 106.733 481.606 106.733 473.72V365.201C106.733 357.314 113.127 350.921 121.013 350.921C128.899 350.921 135.293 357.314 135.293 365.201V473.72C135.293 481.606 128.899 488 121.013 488Z" fill="white"/>
<path d="M121.246 436.011C113.402 436.011 107.018 429.677 106.968 421.822C106.861 404.849 106.851 399.905 106.834 390.931C106.823 385.311 106.809 378.048 106.767 365.248C106.754 361.453 108.254 357.808 110.932 355.12C113.611 352.432 117.251 350.921 121.046 350.921H149.884C174.189 350.921 193.962 369.979 193.962 393.403C193.962 416.828 174.189 435.886 149.884 435.886C142.014 435.886 121.539 436.009 121.333 436.011C121.305 436.011 121.276 436.011 121.246 436.011ZM135.37 379.48C135.382 384.203 135.389 387.787 135.395 390.876C135.406 396.617 135.414 400.701 135.446 407.375C140.849 407.35 146.505 407.327 149.885 407.327C158.297 407.327 165.404 400.95 165.404 393.403C165.404 385.856 158.297 379.48 149.885 379.48H135.37Z" fill="white"/>
<path d="M288.192 487.504H242.884C234.998 487.504 228.604 481.111 228.604 473.224V365.696C228.604 357.81 234.998 351.417 242.884 351.417H288.192C296.079 351.417 302.472 357.81 302.472 365.696C302.472 373.582 296.079 379.976 288.192 379.976H257.164V458.945H288.192C296.079 458.945 302.472 465.338 302.472 473.224C302.472 481.111 296.079 487.504 288.192 487.504Z" fill="white"/>
<path d="M284.851 433.74H242.884C234.998 433.74 228.604 427.346 228.604 419.46C228.604 411.574 234.998 405.18 242.884 405.18H284.851C292.737 405.18 299.131 411.574 299.131 419.46C299.131 427.346 292.737 433.74 284.851 433.74Z" fill="white"/>
<path d="M395.766 487.504H350.458C342.571 487.504 336.178 481.111 336.178 473.224V365.696C336.178 357.81 342.571 351.417 350.458 351.417H395.766C403.653 351.417 410.046 357.81 410.046 365.696C410.046 373.582 403.653 379.976 395.766 379.976H364.737V458.945H395.766C403.653 458.945 410.046 465.338 410.046 473.224C410.046 481.111 403.653 487.504 395.766 487.504Z" fill="white"/>
<path d="M392.425 433.74H350.458C342.571 433.74 336.178 427.346 336.178 419.46C336.178 411.574 342.571 405.18 350.458 405.18H392.425C400.311 405.18 406.705 411.574 406.705 419.46C406.705 427.346 400.311 433.74 392.425 433.74Z" fill="white"/>
<path d="M388.125 105.353C384.47 105.353 380.815 103.959 378.028 101.17C331.203 54.3467 269.763 28.5594 205.026 28.5594C140.29 28.5594 78.8507 54.3467 32.0266 101.17C26.4508 106.747 17.4089 106.747 11.8322 101.17C6.25548 95.5932 6.25548 86.5523 11.8322 80.9755C64.0503 28.7575 132.661 0 205.026 0C277.391 0 346.002 28.7575 398.221 80.9765C403.798 86.5532 403.798 95.5942 398.221 101.171C395.433 103.959 391.778 105.353 388.125 105.353Z" fill="white"/>
</svg>
