<svg xmlns="http://www.w3.org/2000/svg" xmlns:xlink="http://www.w3.org/1999/xlink" version="1.1" x="0px" y="0px" viewBox="0 0 100 100" style="enable-background:new 0 0 100 100;max-width:100%" xml:space="preserve" height="100%"><path d="M71.4,5H30.6c-3.4,0-6.2,2.8-6.2,6.2v73.3c0,3.4,2.8,6.2,6.2,6.2h0.5c0,0.9,0,1.7,0,2.6c0,2.3,3.6,2.3,3.6,0  c0-0.9,0-1.7,0-2.6h32.9c0,0.9,0,1.7,0,2.6c0,2.3,3.6,2.3,3.6,0c0-0.9,0-1.7,0-2.6h0.3c3.4,0,6.2-2.8,6.2-6.2V11.2  C77.6,7.8,74.8,5,71.4,5z M30.6,8.6h40.8c1.4,0,2.5,1.1,2.5,2.5v25.6H28.1V11.2C28.1,9.8,29.2,8.6,30.6,8.6z M71.4,87H30.6  c-1.4,0-2.5-1.1-2.5-2.5V40.4H74v44.1C74,85.9,72.8,87,71.4,87z" style="" fill="currentColor"></path><path d="M32.9,47c0,3.3,0,6.5,0,9.8c0,2.3,3.6,2.3,3.6,0c0-3.3,0-6.5,0-9.8C36.5,44.7,32.9,44.7,32.9,47z" style="" fill="currentColor"></path><path d="M36.5,31c0-3.3,0-6.5,0-9.8c0-2.3-3.6-2.3-3.6,0c0,3.3,0,6.5,0,9.8C32.9,33.3,36.5,33.3,36.5,31z" style="" fill="currentColor"></path></svg>