<svg xmlns="http://www.w3.org/2000/svg" xmlns:xlink="http://www.w3.org/1999/xlink" version="1.1" x="0px" y="0px" viewBox="0 0 100 100" style="enable-background:new 0 0 100 100;max-width:100%" xml:space="preserve" height="100%"><metadata style="" fill="currentColor"><!--?xpacket begin="&#65279;" id="W5M0MpCehiHzreSzNTczkc9d"?--><x:xmpmeta xmlns:x="adobe:ns:meta/" x:xmptk="XMP Core 5.6.0" style="" fill="currentColor"></x:xmpmeta><!--?xpacket end="w"?--></metadata><path d="M79.2,66.5c-6.1-22.8-11-37.1-15.8-45.6c1.1-0.8,1.8-2.2,1.8-3.6V8.7c0-2.6-2.1-4.6-4.6-4.6H39.1c-2.6,0-4.6,2.1-4.6,4.6  v8.5c0,1.5,0.7,2.8,1.8,3.6c-4.8,8.6-9.7,22.8-15.8,45.6c-2.9,10.8-2.3,18.6,1.7,23.8c6,7.9,18,7.9,27.6,7.9c9.6,0,21.6,0,27.6-7.9  C81.5,85,82,77.2,79.2,66.5z M38.4,8.7c0-0.3,0.3-0.6,0.6-0.6h21.5c0.3,0,0.6,0.3,0.6,0.6v8.5c0,0.3-0.3,0.6-0.6,0.6h-4.1v-7.2h-2  v7.2h-3.7v-7.2h-2v7.2h-3.7v-7.2h-2v7.2h-4.1c-0.3,0-0.6-0.3-0.6-0.6V8.7z M40.3,21.8h19c4.8,8.1,9.7,22.3,16,45.7  c0.3,0.9,0.5,1.9,0.7,2.8c-2.8-2.2-7.4-4.4-14.5-4.4c-6.6,0-10.9,1.5-15.2,2.9c-3.7,1.2-7.2,2.4-11.8,2.4c-6.2,0-9.2-1.7-10.4-2.9  c0.1-0.3,0.1-0.5,0.2-0.8C30.5,44.1,35.5,29.9,40.3,21.8z M74.2,87.9c-4.8,6.3-15.7,6.3-24.5,6.3s-19.6,0-24.5-6.3  c-2.9-3.7-3.4-9.6-1.8-17.4c1.9,1.3,5.2,2.7,10.9,2.7c5,0,8.6-1.2,12.4-2.5c4.1-1.4,8.3-2.8,14.5-2.8c8.4,0,13,3.4,15.1,5.6  C77.5,79.8,76.7,84.6,74.2,87.9z M59.9,59.9c0.3,0,0.6,0,1-0.1c1.3-0.3,3.5-1.4,4.3-6c0.5-2.8,0.3-6.3-0.5-9.8  c-0.8-3.5-2.1-6.8-3.7-9.1c-2.7-3.8-5.2-3.9-6.5-3.6c-4.6,1-5.4,8.7-3.8,15.8C52.1,53.7,55.7,59.9,59.9,59.9z M55.3,35.1  C55.3,35.1,55.3,35.1,55.3,35.1c0.4,0,1.2,0.5,2.3,2c1.3,1.9,2.5,4.7,3.1,7.7c0.7,3,0.8,6,0.4,8.3c-0.3,2-1,2.7-1.3,2.8  c-0.8,0.2-3.9-2.9-5.4-9.7C53,39.4,54.5,35.3,55.3,35.1z M39.2,65.6c4.2,0,7.6-3.4,7.6-7.6s-3.4-7.6-7.6-7.6s-7.6,3.4-7.6,7.6  S35,65.6,39.2,65.6z M39.2,52.4c3.1,0,5.6,2.5,5.6,5.6s-2.5,5.6-5.6,5.6s-5.6-2.5-5.6-5.6S36.1,52.4,39.2,52.4z M36.5,58h-1  c0-2,1.7-3.7,3.7-3.7v1C37.7,55.3,36.5,56.5,36.5,58z M62,73.6c-3.2,0-5.7,2.6-5.7,5.7S58.9,85,62,85s5.7-2.6,5.7-5.7  S65.2,73.6,62,73.6z M62,83c-2.1,0-3.7-1.7-3.7-3.7s1.7-3.7,3.7-3.7s3.7,1.7,3.7,3.7S64.1,83,62,83z M62,76.9v1  c-0.8,0-1.5,0.7-1.5,1.5h-1C59.6,78,60.7,76.9,62,76.9z" style="" fill="currentColor"></path></svg>