<svg width="1471" height="536" viewBox="0 0 1471 536" fill="none" xmlns="http://www.w3.org/2000/svg">
<path d="M23.125 473.615H115.44V453.45H23.125V473.615ZM101.38 403.5V533H123.21V403.5H101.38ZM14.43 403.5V533H36.26V403.5H14.43ZM180.586 499.7H249.036L244.781 481.2H184.656L180.586 499.7ZM214.441 440.13L234.976 488.23L235.531 493.595L253.106 533H277.711L214.441 396.285L151.171 533H175.776L193.721 492.485L194.091 487.675L214.441 440.13ZM305.726 403.5V533H327.556V403.5H305.726ZM318.676 422.74H344.761C352.284 422.74 358.327 424.528 362.891 428.105C367.454 431.558 369.736 436.738 369.736 443.645C369.736 450.552 367.454 455.793 362.891 459.37C358.327 462.947 352.284 464.735 344.761 464.735H318.676V483.975H344.761C354.134 483.975 362.274 482.372 369.181 479.165C376.211 475.835 381.637 471.148 385.461 465.105C389.284 459.062 391.196 451.908 391.196 443.645C391.196 435.382 389.284 428.29 385.461 422.37C381.637 416.327 376.211 411.702 369.181 408.495C362.274 405.165 354.134 403.5 344.761 403.5H318.676V422.74ZM425.629 403.5V533H447.459V403.5H425.629ZM438.579 422.74H464.664C472.187 422.74 478.23 424.528 482.794 428.105C487.357 431.558 489.639 436.738 489.639 443.645C489.639 450.552 487.357 455.793 482.794 459.37C478.23 462.947 472.187 464.735 464.664 464.735H438.579V483.975H464.664C474.037 483.975 482.177 482.372 489.084 479.165C496.114 475.835 501.54 471.148 505.364 465.105C509.187 459.062 511.099 451.908 511.099 443.645C511.099 435.382 509.187 428.29 505.364 422.37C501.54 416.327 496.114 411.702 489.084 408.495C482.177 405.165 474.037 403.5 464.664 403.5H438.579V422.74ZM611.156 403.5L581.001 459L550.846 403.5H526.056L569.901 478.61V533H592.101V478.425L636.131 403.5H611.156ZM741.098 473.615H833.413V453.45H741.098V473.615ZM819.353 403.5V533H841.183V403.5H819.353ZM732.403 403.5V533H754.233V403.5H732.403ZM898.744 468.25C898.744 459.37 900.594 451.477 904.294 444.57C908.118 437.54 913.359 432.052 920.019 428.105C926.679 424.158 934.264 422.185 942.774 422.185C951.531 422.185 959.178 424.158 965.714 428.105C972.374 432.052 977.554 437.54 981.254 444.57C984.954 451.477 986.804 459.37 986.804 468.25C986.804 477.13 984.893 485.085 981.069 492.115C977.369 499.022 972.189 504.448 965.529 508.395C958.993 512.342 951.408 514.315 942.774 514.315C934.264 514.315 926.679 512.342 920.019 508.395C913.359 504.448 908.118 499.022 904.294 492.115C900.594 485.085 898.744 477.13 898.744 468.25ZM875.619 468.25C875.619 477.87 877.284 486.812 880.614 495.075C883.944 503.338 888.569 510.492 894.489 516.535C900.533 522.578 907.686 527.327 915.949 530.78C924.213 534.11 933.154 535.775 942.774 535.775C952.518 535.775 961.459 534.11 969.599 530.78C977.863 527.327 985.016 522.578 991.059 516.535C997.103 510.492 1001.79 503.338 1005.12 495.075C1008.45 486.812 1010.11 477.87 1010.11 468.25C1010.11 458.507 1008.45 449.565 1005.12 441.425C1001.79 433.285 997.041 426.255 990.874 420.335C984.831 414.292 977.739 409.605 969.599 406.275C961.459 402.945 952.518 401.28 942.774 401.28C933.278 401.28 924.398 402.945 916.134 406.275C907.994 409.605 900.841 414.292 894.674 420.335C888.631 426.255 883.944 433.285 880.614 441.425C877.284 449.565 875.619 458.507 875.619 468.25ZM1052.8 491.375L1036.52 502.66C1039.36 508.58 1043.18 514.068 1047.99 519.125C1052.8 524.182 1058.42 528.252 1064.83 531.335C1071.37 534.295 1078.46 535.775 1086.1 535.775C1091.65 535.775 1096.96 534.85 1102.01 533C1107.19 531.273 1111.82 528.807 1115.89 525.6C1119.96 522.27 1123.17 518.2 1125.51 513.39C1127.85 508.58 1129.02 503.153 1129.02 497.11C1129.02 491.437 1128.04 486.503 1126.06 482.31C1124.21 478.117 1121.69 474.478 1118.48 471.395C1115.27 468.188 1111.7 465.537 1107.75 463.44C1103.93 461.343 1100.1 459.617 1096.28 458.26C1089.37 455.793 1083.76 453.388 1079.44 451.045C1075.13 448.702 1071.92 446.235 1069.82 443.645C1067.85 440.932 1066.86 437.91 1066.86 434.58C1066.86 430.88 1068.28 427.673 1071.12 424.96C1073.96 422.123 1078.4 420.705 1084.44 420.705C1088.76 420.705 1092.52 421.568 1095.72 423.295C1099.05 424.898 1101.95 427.118 1104.42 429.955C1106.89 432.668 1108.92 435.628 1110.52 438.835L1128.28 428.845C1126.06 424.282 1122.98 419.903 1119.03 415.71C1115.21 411.517 1110.46 408.063 1104.79 405.35C1099.12 402.637 1092.46 401.28 1084.81 401.28C1077.04 401.28 1070.07 402.76 1063.9 405.72C1057.86 408.557 1053.05 412.627 1049.47 417.93C1045.9 423.11 1044.11 429.153 1044.11 436.06C1044.11 442.103 1045.28 447.283 1047.62 451.6C1049.97 455.793 1052.93 459.37 1056.5 462.33C1060.08 465.167 1063.84 467.572 1067.79 469.545C1071.74 471.395 1075.31 472.875 1078.52 473.985C1083.95 475.958 1088.69 477.993 1092.76 480.09C1096.96 482.063 1100.23 484.53 1102.57 487.49C1104.91 490.327 1106.08 494.15 1106.08 498.96C1106.08 504.017 1104.23 508.148 1100.53 511.355C1096.83 514.562 1092.02 516.165 1086.1 516.165C1081.17 516.165 1076.73 515.178 1072.78 513.205C1068.84 511.108 1065.2 508.21 1061.87 504.51C1058.66 500.687 1055.64 496.308 1052.8 491.375ZM1151.43 423.665H1185.47V533H1207.48V423.665H1241.71V403.5H1151.43V423.665ZM1284.06 533H1349.36V513.76H1284.06V533ZM1284.06 422.74H1349.36V403.5H1284.06V422.74ZM1284.06 473.06H1345.66V454.19H1284.06V473.06ZM1270.55 403.5V533H1292.01V403.5H1270.55ZM1389.19 403.5V533H1462.45V513.39H1411.02V403.5H1389.19Z" fill="#4D4D4D"/>
<path d="M694.904 258.343C696.217 259.654 697.996 260.391 699.852 260.391C701.708 260.391 703.487 259.654 704.8 258.343L752.328 210.815C759.135 204.008 762.959 194.775 762.959 185.149C762.959 175.522 759.135 166.29 752.328 159.483C745.521 152.676 736.289 148.852 726.662 148.852C717.035 148.852 707.803 152.676 700.996 159.483L699.852 160.623L698.708 159.483C691.901 152.676 682.669 148.852 673.042 148.852C663.415 148.852 654.183 152.676 647.376 159.483C640.569 166.29 636.745 175.522 636.745 185.149C636.745 194.775 640.569 204.008 647.376 210.815L694.904 258.343ZM657.272 169.379C661.458 165.204 667.128 162.859 673.04 162.859C678.952 162.859 684.622 165.204 688.808 169.379L694.904 175.475C696.217 176.786 697.996 177.523 699.852 177.523C701.708 177.523 703.487 176.786 704.8 175.475L710.896 169.379C712.961 167.281 715.42 165.614 718.133 164.471C720.845 163.329 723.757 162.735 726.7 162.724C729.643 162.712 732.559 163.283 735.281 164.404C738.002 165.525 740.475 167.174 742.556 169.255C744.637 171.336 746.285 173.809 747.406 176.53C748.527 179.251 749.099 182.168 749.087 185.111C749.076 188.054 748.482 190.966 747.339 193.678C746.197 196.39 744.529 198.85 742.432 200.915L699.852 243.491L657.272 200.915C653.097 196.729 650.753 191.059 650.753 185.147C650.753 179.235 653.097 173.564 657.272 169.379V169.379Z" fill="#0B6354"/>
<path d="M699.852 106.595C705.678 106.595 711.373 104.869 716.218 101.632C721.063 98.3962 724.839 93.796 727.069 88.4137C729.299 83.0314 729.883 77.1087 728.747 71.3945C727.61 65.6803 724.805 60.4314 720.686 56.3115C716.567 52.1916 711.318 49.3858 705.604 48.2489C699.89 47.112 693.967 47.6951 688.585 49.9244C683.202 52.1538 678.601 55.9292 675.365 60.7733C672.128 65.6174 670.4 71.3126 670.4 77.1386C670.408 84.9476 673.514 92.4343 679.035 97.9564C684.557 103.479 692.043 106.585 699.852 106.595V106.595ZM699.852 61.6826C702.909 61.6818 705.898 62.5876 708.44 64.2855C710.982 65.9833 712.964 68.397 714.134 71.2211C715.305 74.0452 715.611 77.1531 715.016 80.1515C714.42 83.1499 712.948 85.9043 710.786 88.0663C708.625 90.2282 705.871 91.7007 702.873 92.2974C699.875 92.8941 696.767 92.5882 693.942 91.4185C691.118 90.2488 688.704 88.2677 687.005 85.7259C685.307 83.1841 684.4 80.1957 684.4 77.1386C684.404 73.0414 686.033 69.1132 688.93 66.2157C691.827 63.3181 695.755 61.6879 699.852 61.6826V61.6826Z" fill="#0B6354"/>
<path d="M854.1 184.403L814.624 152.507V114.607H830.524C831.989 114.61 833.418 114.154 834.609 113.302C835.801 112.45 836.696 111.246 837.167 109.859C837.638 108.472 837.663 106.972 837.237 105.571C836.81 104.169 835.955 102.937 834.792 102.047L704.12 1.4548C702.897 0.511583 701.396 0 699.852 0C698.308 0 696.807 0.511583 695.584 1.4548L564.912 102.047C563.755 102.939 562.906 104.17 562.484 105.569C562.062 106.967 562.088 108.463 562.559 109.846C563.029 111.229 563.921 112.43 565.108 113.281C566.295 114.131 567.719 114.59 569.18 114.591H585.08V152.491L545.6 184.387C544.788 185.043 544.133 185.872 543.683 186.814C543.233 187.756 543 188.787 543 189.831V304.679C542.999 305.598 543.18 306.509 543.532 307.358C543.883 308.208 544.399 308.98 545.049 309.63C545.699 310.28 546.471 310.795 547.321 311.147C548.17 311.499 549.081 311.679 550 311.679H849.704C850.623 311.679 851.534 311.499 852.383 311.147C853.233 310.795 854.005 310.28 854.655 309.63C855.305 308.98 855.821 308.208 856.172 307.358C856.524 306.509 856.705 305.598 856.704 304.679V189.847C856.704 188.802 856.471 187.771 856.02 186.829C855.569 185.887 854.913 185.058 854.1 184.403V184.403ZM557 193.203L585.08 170.515V297.715H557V193.203ZM592.08 100.619H589.748L699.852 15.8348L809.956 100.607H807.624C805.768 100.608 803.988 101.346 802.675 102.658C801.363 103.971 800.625 105.751 800.624 107.607V297.695H599.08V107.607C599.079 105.751 598.341 103.971 597.029 102.658C595.716 101.346 593.936 100.608 592.08 100.607V100.619ZM842.704 297.695H814.624V170.495L842.704 193.183V297.695Z" fill="#0B6354"/>
<path d="M1233.73 242.765C1234.13 241.274 1233.84 239.682 1232.93 238.43C1223.89 225.912 1209.92 216.609 1193.59 212.232C1188.14 210.773 1182.65 209.923 1177.22 209.668C1180.2 207.87 1183.14 206.008 1186.03 204.084C1200.94 202.239 1215.48 194.876 1227.11 183.254C1239.06 171.298 1246.51 156.254 1248.08 140.893C1248.24 139.357 1247.7 137.832 1246.61 136.74C1245.52 135.649 1243.99 135.106 1242.45 135.263C1227.09 136.834 1212.05 144.284 1200.09 156.24C1188.78 167.557 1181.5 181.643 1179.42 196.145C1174.45 199.415 1169.35 202.496 1164.14 205.374C1167.79 197.587 1170.11 188.934 1170.89 179.855C1172.34 163.009 1168.36 146.7 1159.67 133.933C1158.81 132.657 1157.41 131.839 1155.87 131.706C1154.33 131.574 1152.82 132.14 1151.74 133.249C1141 144.34 1134.28 159.725 1132.83 176.57C1131.58 190.973 1134.32 204.981 1140.56 216.721C1126.57 222.525 1112 226.993 1097.13 230.014C1103.53 222.232 1108.38 212.822 1111.23 202.439C1115.72 186.136 1114.76 169.376 1108.53 155.245C1107.91 153.832 1106.69 152.775 1105.2 152.366C1103.71 151.956 1102.12 152.238 1100.86 153.134C1088.28 162.092 1078.88 176.004 1074.4 192.306C1070.54 206.33 1070.72 220.692 1074.8 233.429C1062.72 234.682 1050.53 234.992 1038.39 234.374C1046.45 226.903 1052.9 217.237 1057.07 206.186C1063.04 190.367 1063.63 173.59 1058.73 158.945C1058.24 157.48 1057.12 156.315 1055.67 155.77C1054.23 155.225 1052.61 155.359 1051.28 156.135C1037.93 163.895 1027.29 176.881 1021.32 192.701C1016.36 205.868 1015.12 219.697 1017.66 232.409C1002.78 230.338 988.1 226.866 973.926 222.011C971.243 221.092 968.324 222.521 967.405 225.204C966.748 227.121 967.291 229.159 968.634 230.501C969.169 231.037 969.833 231.462 970.598 231.724C986.611 237.209 1003.24 241.004 1020.09 243.081C1022.76 256.109 1029.64 268.576 1039.82 278.763C1040.53 279.469 1041.25 280.165 1041.99 280.85C1054.39 292.344 1069.71 299.219 1085.12 300.208C1086.66 300.307 1088.16 299.707 1089.21 298.575C1090.26 297.442 1090.75 295.898 1090.53 294.369C1088.38 279.078 1080.37 264.325 1067.96 252.832C1064.75 249.85 1061.33 247.182 1057.77 244.844C1064.92 244.634 1072.05 244.113 1079.15 243.279C1082.14 248.782 1085.98 253.892 1090.55 258.461C1096.46 264.371 1103.57 269.381 1111.56 273.181C1126.82 280.447 1143.49 282.432 1158.5 278.772C1160 278.407 1161.25 277.385 1161.91 275.991C1162.58 274.597 1162.58 272.979 1161.92 271.584C1155.3 257.633 1143.24 245.951 1127.97 238.684C1125.08 237.309 1122.14 236.124 1119.17 235.129C1128.39 232.435 1137.45 229.205 1146.29 225.459C1147.72 227.237 1149.24 228.949 1150.87 230.576C1159.54 239.242 1170.89 245.704 1183.7 249.136C1200.03 253.512 1216.79 252.442 1230.87 246.122C1232.28 245.488 1233.33 244.256 1233.73 242.765ZM1143.06 177.452C1144.09 165.483 1148.16 154.424 1154.67 145.641C1159.58 155.409 1161.69 167.001 1160.66 178.971C1159.63 190.94 1155.56 201.999 1149.05 210.782C1144.14 201.014 1142.02 189.422 1143.06 177.452ZM1030.93 196.324C1035.17 185.084 1042.09 175.543 1050.74 168.856C1052.81 179.59 1051.7 191.321 1047.46 202.561C1043.22 213.802 1036.3 223.342 1027.66 230.03C1025.58 219.296 1026.69 207.565 1030.93 196.324ZM1236.72 146.631C1234.19 157.267 1228.34 167.498 1219.85 175.994C1211.35 184.489 1201.12 190.334 1190.48 192.863C1193.01 182.227 1198.86 171.995 1207.35 163.5C1215.85 155.005 1226.08 149.16 1236.72 146.631ZM1084.3 195.029C1087.49 183.445 1093.49 173.308 1101.49 165.852C1104.55 176.348 1104.52 188.132 1101.34 199.716C1098.15 211.3 1092.14 221.437 1084.15 228.893C1081.09 218.396 1081.11 206.613 1084.3 195.029ZM1060.99 260.362C1069.8 268.53 1076.02 278.532 1078.95 289.065C1068.23 286.94 1057.78 281.486 1048.97 273.318C1040.16 265.157 1033.94 255.148 1031.01 244.615C1041.73 246.741 1052.17 252.193 1060.99 260.362ZM1123.56 247.954C1134.41 253.116 1143.34 260.802 1149.28 269.979C1138.41 271.154 1126.82 269.07 1115.97 263.908C1105.12 258.746 1096.19 251.06 1090.25 241.884C1101.12 240.709 1112.71 242.792 1123.56 247.954ZM1186.36 239.217C1174.75 236.107 1164.57 230.169 1157.07 222.223C1167.54 219.096 1179.33 219.041 1190.93 222.15C1202.54 225.26 1212.72 231.196 1220.22 239.144C1209.75 242.272 1197.96 242.326 1186.36 239.217Z" fill="#CCC1BD"/>
<path d="M1233.73 242.765C1234.13 241.274 1233.84 239.682 1232.93 238.43C1223.89 225.912 1209.92 216.609 1193.59 212.232C1188.14 210.773 1182.65 209.923 1177.22 209.668C1180.2 207.87 1183.14 206.008 1186.03 204.084C1200.94 202.239 1215.48 194.876 1227.11 183.254C1239.06 171.298 1246.51 156.254 1248.08 140.893C1248.24 139.357 1247.7 137.832 1246.61 136.74C1245.52 135.649 1243.99 135.106 1242.45 135.263C1227.09 136.834 1212.05 144.284 1200.09 156.24C1188.78 167.557 1181.5 181.643 1179.42 196.145C1174.45 199.415 1169.35 202.496 1164.14 205.374C1167.79 197.587 1170.11 188.934 1170.89 179.855C1172.34 163.009 1168.36 146.7 1159.67 133.933C1158.81 132.657 1157.41 131.839 1155.87 131.706C1154.33 131.574 1152.82 132.14 1151.74 133.249C1141 144.34 1134.28 159.725 1132.83 176.57C1131.58 190.973 1134.32 204.981 1140.56 216.721C1126.57 222.525 1112 226.993 1097.13 230.014C1103.53 222.232 1108.38 212.822 1111.23 202.439C1115.72 186.136 1114.76 169.376 1108.53 155.245C1107.91 153.832 1106.69 152.775 1105.2 152.366C1103.71 151.956 1102.12 152.238 1100.86 153.134C1088.28 162.092 1078.88 176.004 1074.4 192.306C1070.54 206.33 1070.72 220.692 1074.8 233.429C1062.72 234.682 1050.53 234.992 1038.39 234.374C1046.45 226.903 1052.9 217.237 1057.07 206.186C1063.04 190.367 1063.63 173.59 1058.73 158.945C1058.24 157.48 1057.12 156.315 1055.67 155.77C1054.23 155.225 1052.61 155.359 1051.28 156.135C1037.93 163.895 1027.29 176.881 1021.32 192.701C1016.36 205.868 1015.12 219.697 1017.66 232.409C1002.78 230.338 988.1 226.866 973.926 222.011C971.243 221.092 968.324 222.521 967.405 225.204C966.748 227.121 967.291 229.159 968.634 230.501C969.169 231.037 969.833 231.462 970.598 231.724C986.611 237.209 1003.24 241.004 1020.09 243.081C1022.76 256.109 1029.64 268.576 1039.82 278.763C1040.53 279.469 1041.25 280.165 1041.99 280.85C1054.39 292.344 1069.71 299.219 1085.12 300.208C1086.66 300.307 1088.16 299.707 1089.21 298.575C1090.26 297.442 1090.75 295.898 1090.53 294.369C1088.38 279.078 1080.37 264.325 1067.96 252.832C1064.75 249.85 1061.33 247.182 1057.77 244.844C1064.92 244.634 1072.05 244.113 1079.15 243.279C1082.14 248.782 1085.98 253.892 1090.55 258.461C1096.46 264.371 1103.57 269.381 1111.56 273.181C1126.82 280.447 1143.49 282.432 1158.5 278.772C1160 278.407 1161.25 277.385 1161.91 275.991C1162.58 274.597 1162.58 272.979 1161.92 271.584C1155.3 257.633 1143.24 245.951 1127.97 238.684C1125.08 237.309 1122.14 236.124 1119.17 235.129C1128.39 232.435 1137.45 229.205 1146.29 225.459C1147.72 227.237 1149.24 228.949 1150.87 230.576C1159.54 239.242 1170.89 245.704 1183.7 249.136C1200.03 253.512 1216.79 252.442 1230.87 246.122C1232.28 245.488 1233.33 244.256 1233.73 242.765ZM1143.06 177.452C1144.09 165.483 1148.16 154.424 1154.67 145.641C1159.58 155.409 1161.69 167.001 1160.66 178.971C1159.63 190.94 1155.56 201.999 1149.05 210.782C1144.14 201.014 1142.02 189.422 1143.06 177.452ZM1030.93 196.324C1035.17 185.084 1042.09 175.543 1050.74 168.856C1052.81 179.59 1051.7 191.321 1047.46 202.561C1043.22 213.802 1036.3 223.342 1027.66 230.03C1025.58 219.296 1026.69 207.565 1030.93 196.324ZM1236.72 146.631C1234.19 157.267 1228.34 167.498 1219.85 175.994C1211.35 184.489 1201.12 190.334 1190.48 192.863C1193.01 182.227 1198.86 171.995 1207.35 163.5C1215.85 155.005 1226.08 149.16 1236.72 146.631ZM1084.3 195.029C1087.49 183.445 1093.49 173.308 1101.49 165.852C1104.55 176.348 1104.52 188.132 1101.34 199.716C1098.15 211.3 1092.14 221.437 1084.15 228.893C1081.09 218.396 1081.11 206.613 1084.3 195.029ZM1060.99 260.362C1069.8 268.53 1076.02 278.532 1078.95 289.065C1068.23 286.94 1057.78 281.486 1048.97 273.318C1040.16 265.157 1033.94 255.148 1031.01 244.615C1041.73 246.741 1052.17 252.193 1060.99 260.362ZM1123.56 247.954C1134.41 253.116 1143.34 260.802 1149.28 269.979C1138.41 271.154 1126.82 269.07 1115.97 263.908C1105.12 258.746 1096.19 251.06 1090.25 241.884C1101.12 240.709 1112.71 242.792 1123.56 247.954ZM1186.36 239.217C1174.75 236.107 1164.57 230.169 1157.07 222.223C1167.54 219.096 1179.33 219.041 1190.93 222.15C1202.54 225.26 1212.72 231.196 1220.22 239.144C1209.75 242.272 1197.96 242.326 1186.36 239.217Z" fill="#CCC1BD"/>
<path d="M165.937 242.765C165.537 241.274 165.83 239.682 166.734 238.43C175.775 225.912 189.749 216.609 206.08 212.232C211.527 210.773 217.02 209.923 222.446 209.668C219.469 207.87 216.533 206.008 213.639 204.084C198.725 202.239 184.184 194.876 172.561 183.254C160.606 171.298 153.156 156.254 151.585 140.893C151.427 139.357 151.97 137.832 153.061 136.74C154.153 135.649 155.678 135.106 157.214 135.263C172.576 136.834 187.62 144.284 199.575 156.24C210.893 167.557 218.169 181.643 220.247 196.145C225.217 199.415 230.315 202.496 235.528 205.374C231.879 197.587 229.563 188.934 228.78 179.855C227.326 163.009 231.308 146.7 239.994 133.933C240.862 132.657 242.259 131.839 243.797 131.706C245.336 131.574 246.852 132.14 247.926 133.249C258.67 144.34 265.388 159.725 266.842 176.57C268.085 190.973 265.351 204.981 259.104 216.721C273.1 222.525 287.667 226.993 302.536 230.014C296.141 222.232 291.29 212.822 288.434 202.439C283.949 186.136 284.908 169.376 291.134 155.245C291.756 153.832 292.982 152.775 294.47 152.366C295.959 151.956 297.553 152.238 298.81 153.134C311.388 162.092 320.784 176.004 325.269 192.306C329.127 206.33 328.952 220.692 324.865 233.429C336.952 234.682 349.141 234.992 361.282 234.374C353.222 226.903 346.771 217.237 342.601 206.186C336.633 190.367 336.043 173.59 340.94 158.945C341.429 157.48 342.553 156.315 343.996 155.77C345.44 155.225 347.054 155.359 348.389 156.135C361.738 163.895 372.377 176.881 378.346 192.701C383.313 205.868 384.551 219.697 382.005 232.409C396.891 230.338 411.568 226.866 425.743 222.011C428.425 221.092 431.345 222.521 432.264 225.204C432.92 227.121 432.377 229.159 431.035 230.501C430.499 231.037 429.836 231.462 429.07 231.724C413.058 237.209 396.43 241.004 379.576 243.081C376.909 256.109 370.03 268.576 359.844 278.763C359.137 279.469 358.414 280.165 357.676 280.85C345.276 292.344 329.961 299.219 314.551 300.208C313.011 300.307 311.507 299.707 310.458 298.575C309.408 297.442 308.924 295.898 309.139 294.369C311.29 279.078 319.301 264.325 331.704 252.832C334.921 249.85 338.335 247.182 341.895 244.844C334.75 244.634 327.615 244.113 320.519 243.279C317.528 248.782 313.684 253.892 309.115 258.461C303.205 264.371 296.097 269.381 288.112 273.181C272.845 280.447 256.175 282.432 241.173 278.772C239.673 278.407 238.418 277.385 237.754 275.991C237.09 274.597 237.09 272.979 237.752 271.584C244.373 257.633 256.428 245.951 271.695 238.684C274.585 237.309 277.526 236.124 280.496 235.129C271.276 232.435 262.216 229.205 253.38 225.459C251.951 227.237 250.426 228.949 248.798 230.576C240.133 239.242 228.775 245.704 215.968 249.136C199.637 253.512 182.883 252.442 168.794 246.122C167.385 245.488 166.336 244.256 165.937 242.765ZM256.612 177.452C255.579 165.483 251.511 154.424 245 145.641C240.089 155.409 237.976 167.001 239.009 178.971C240.042 190.94 244.111 201.999 250.622 210.782C255.532 201.014 257.646 189.422 256.612 177.452ZM368.738 196.324C364.498 185.084 357.582 175.543 348.933 168.856C346.857 179.59 347.967 191.321 352.208 202.561C356.449 213.802 363.364 223.342 372.013 230.03C374.09 219.296 372.979 207.565 368.738 196.324ZM162.952 146.631C165.482 157.267 171.326 167.498 179.821 175.994C188.317 184.489 198.548 190.334 209.185 192.863C206.655 182.227 200.81 171.995 192.315 163.5C183.82 155.005 173.588 149.16 162.952 146.631ZM315.369 195.029C312.182 183.445 306.176 173.308 298.18 165.852C295.123 176.348 295.147 188.132 298.334 199.716C301.52 211.3 307.526 221.437 315.522 228.893C318.579 218.396 318.555 206.613 315.369 195.029ZM338.683 260.362C329.87 268.53 323.644 278.532 320.714 289.065C331.438 286.94 341.884 281.486 350.694 273.318C359.506 265.157 365.733 255.148 368.664 244.615C357.94 246.741 347.494 252.193 338.683 260.362ZM276.107 247.954C265.258 253.116 256.327 260.802 250.384 269.979C261.254 271.154 272.851 269.07 283.699 263.908C294.548 258.746 303.479 251.06 309.422 241.884C298.554 240.709 286.956 242.792 276.107 247.954ZM213.311 239.217C224.916 236.107 235.098 230.169 242.602 222.223C232.126 219.096 220.343 219.041 208.738 222.15C197.133 225.26 186.951 231.196 179.447 239.144C189.923 242.272 201.706 242.326 213.311 239.217Z" fill="#CCC1BD"/>
<path d="M165.937 242.765C165.537 241.274 165.83 239.682 166.734 238.43C175.775 225.912 189.749 216.609 206.08 212.232C211.527 210.773 217.02 209.923 222.446 209.668C219.469 207.87 216.533 206.008 213.639 204.084C198.725 202.239 184.184 194.876 172.561 183.254C160.606 171.298 153.156 156.254 151.585 140.893C151.427 139.357 151.97 137.832 153.061 136.74C154.153 135.649 155.678 135.106 157.214 135.263C172.576 136.834 187.62 144.284 199.575 156.24C210.893 167.557 218.169 181.643 220.247 196.145C225.217 199.415 230.315 202.496 235.528 205.374C231.879 197.587 229.563 188.934 228.78 179.855C227.326 163.009 231.308 146.7 239.994 133.933C240.862 132.657 242.259 131.839 243.797 131.706C245.336 131.574 246.852 132.14 247.926 133.249C258.67 144.34 265.388 159.725 266.842 176.57C268.085 190.973 265.351 204.981 259.104 216.721C273.1 222.525 287.667 226.993 302.536 230.014C296.141 222.232 291.29 212.822 288.434 202.439C283.949 186.136 284.908 169.376 291.134 155.245C291.756 153.832 292.982 152.775 294.47 152.366C295.959 151.956 297.553 152.238 298.81 153.134C311.388 162.092 320.784 176.004 325.269 192.306C329.127 206.33 328.952 220.692 324.865 233.429C336.952 234.682 349.141 234.992 361.282 234.374C353.222 226.903 346.771 217.237 342.601 206.186C336.633 190.367 336.043 173.59 340.94 158.945C341.429 157.48 342.553 156.315 343.996 155.77C345.44 155.225 347.054 155.359 348.389 156.135C361.738 163.895 372.377 176.881 378.346 192.701C383.313 205.868 384.551 219.697 382.005 232.409C396.891 230.338 411.568 226.866 425.743 222.011C428.425 221.092 431.345 222.521 432.264 225.204C432.92 227.121 432.377 229.159 431.035 230.501C430.499 231.037 429.836 231.462 429.07 231.724C413.058 237.209 396.43 241.004 379.576 243.081C376.909 256.109 370.03 268.576 359.844 278.763C359.137 279.469 358.414 280.165 357.676 280.85C345.276 292.344 329.961 299.219 314.551 300.208C313.011 300.307 311.507 299.707 310.458 298.575C309.408 297.442 308.924 295.898 309.139 294.369C311.29 279.078 319.301 264.325 331.704 252.832C334.921 249.85 338.335 247.182 341.895 244.844C334.75 244.634 327.615 244.113 320.519 243.279C317.528 248.782 313.684 253.892 309.115 258.461C303.205 264.371 296.097 269.381 288.112 273.181C272.845 280.447 256.175 282.432 241.173 278.772C239.673 278.407 238.418 277.385 237.754 275.991C237.09 274.597 237.09 272.979 237.752 271.584C244.373 257.633 256.428 245.951 271.695 238.684C274.585 237.309 277.526 236.124 280.496 235.129C271.276 232.435 262.216 229.205 253.38 225.459C251.951 227.237 250.426 228.949 248.798 230.576C240.133 239.242 228.775 245.704 215.968 249.136C199.637 253.512 182.883 252.442 168.794 246.122C167.385 245.488 166.336 244.256 165.937 242.765ZM256.612 177.452C255.579 165.483 251.511 154.424 245 145.641C240.089 155.409 237.976 167.001 239.009 178.971C240.042 190.94 244.111 201.999 250.622 210.782C255.532 201.014 257.646 189.422 256.612 177.452ZM368.738 196.324C364.498 185.084 357.582 175.543 348.933 168.856C346.857 179.59 347.967 191.321 352.208 202.561C356.449 213.802 363.364 223.342 372.013 230.03C374.09 219.296 372.979 207.565 368.738 196.324ZM162.952 146.631C165.482 157.267 171.326 167.498 179.821 175.994C188.317 184.489 198.548 190.334 209.185 192.863C206.655 182.227 200.81 171.995 192.315 163.5C183.82 155.005 173.588 149.16 162.952 146.631ZM315.369 195.029C312.182 183.445 306.176 173.308 298.18 165.852C295.123 176.348 295.147 188.132 298.334 199.716C301.52 211.3 307.526 221.437 315.522 228.893C318.579 218.396 318.555 206.613 315.369 195.029ZM338.683 260.362C329.87 268.53 323.644 278.532 320.714 289.065C331.438 286.94 341.884 281.486 350.694 273.318C359.506 265.157 365.733 255.148 368.664 244.615C357.94 246.741 347.494 252.193 338.683 260.362ZM276.107 247.954C265.258 253.116 256.327 260.802 250.384 269.979C261.254 271.154 272.851 269.07 283.699 263.908C294.548 258.746 303.479 251.06 309.422 241.884C298.554 240.709 286.956 242.792 276.107 247.954ZM213.311 239.217C224.916 236.107 235.098 230.169 242.602 222.223C232.126 219.096 220.343 219.041 208.738 222.15C197.133 225.26 186.951 231.196 179.447 239.144C189.923 242.272 201.706 242.326 213.311 239.217Z" fill="#CCC1BD"/>
</svg>
