<svg xmlns="http://www.w3.org/2000/svg" xmlns:xlink="http://www.w3.org/1999/xlink" version="1.1" x="0px" y="0px" viewBox="0 0 100 100" enable-background="new 0 0 100 100" xml:space="preserve" style="max-width:100%" height="100%"><g style="" fill="currentColor"><path fill="currentColor" d="M82.8,24.5c-0.1,0-0.2,0-0.3,0h-15V18c0-5-3.8-9-8.7-9.5c-0.1,0-0.2,0-0.3,0H42c-5.2,0-9.5,4.3-9.5,9.5v6.5   H18c-5.2,0-9.5,4.3-9.5,9.5v40c0,4.8,3.5,8.7,8.1,9.4c0.7,4.6,4.6,8.1,9.4,8.1c4.7,0,8.6-3.5,9.4-8h29.3c0.7,4.5,4.6,8,9.4,8   c4.8,0,8.7-3.5,9.4-8.1c4.6-0.7,8.1-4.6,8.1-9.4V34C91.5,29,87.7,25,82.8,24.5z M27.5,80.5v-53h25v13H50c-0.4,0-0.8,0.2-1.1,0.4   l-8,8c-0.3,0.3-0.4,0.7-0.4,1.1v24c0,0.8,0.7,1.5,1.5,1.5h24c0.8,0,1.5-0.7,1.5-1.5V50c0-0.4-0.2-0.8-0.4-1.1l-8-8   c-0.3-0.3-0.7-0.4-1.1-0.4h-2.5v-13h17v53H27.5z M54,51.5c1.4,0,2.5,1.1,2.5,2.5s-1.1,2.5-2.5,2.5s-2.5-1.1-2.5-2.5   S52.6,51.5,54,51.5z M52.5,48.7c-2.3,0.7-4,2.8-4,5.3c0,3,2.5,5.5,5.5,5.5s5.5-2.5,5.5-5.5c0-2.5-1.7-4.6-4-5.3v-5.2h1.9l7.1,7.1   v21.9h-21V50.6l7.1-7.1h1.9V48.7z M64.5,18v6.5h-9v-13H58C61.6,11.5,64.5,14.4,64.5,18z M35.5,18c0-3.6,2.9-6.5,6.5-6.5h10.5v13   h-17V18z M11.5,74V34c0-3.6,2.9-6.5,6.5-6.5h6.5v53H18C14.4,80.5,11.5,77.6,11.5,74z M26,88.5c-3.1,0-5.6-2.1-6.3-5h12.6   C31.6,86.4,29.1,88.5,26,88.5z M74,88.5c-3.1,0-5.6-2.1-6.3-5h12.6C79.6,86.4,77.1,88.5,74,88.5z M82,80.5h-6.5v-53H82   c3.6,0,6.5,2.9,6.5,6.5v40C88.5,77.6,85.6,80.5,82,80.5z" style=""></path></g></svg>